<?xml version="1.0" standalone="no"?><!DOCTYPE svg PUBLIC "-//W3C//DTD SVG 1.1//EN" "http://www.w3.org/Graphics/SVG/1.1/DTD/svg11.dtd"><svg t="1607396866401" class="icon" viewBox="0 0 1024 1024" version="1.1" xmlns="http://www.w3.org/2000/svg" p-id="2146" width="128" height="128" xmlns:xlink="http://www.w3.org/1999/xlink"><defs><style type="text/css"></style></defs><path d="M627.37 326.46c0 74-59.99 133.99-133.99 133.99s-133.99-59.99-133.99-133.99 59.99-133.99 133.99-133.99c74 0.01 133.99 59.99 133.99 133.99z" fill="#ffffff" p-id="2147"></path><path d="M663.1 362.2c0 74-59.99 133.99-133.99 133.99S395.12 436.2 395.12 362.2s59.99-134 133.99-134c74 0.01 133.99 60 133.99 134z" fill="#ffffff" p-id="2148"></path><path d="M529.11 508.69c80.75 0 146.5-65.74 146.5-146.5s-65.74-146.5-146.5-146.5-146.5 65.74-146.5 146.5 65.74 146.5 146.5 146.5z m0-267.98c67.09 0 121.49 54.39 121.49 121.49s-54.4 121.48-121.49 121.48-121.48-54.39-121.49-121.48c0.07-67.07 54.42-121.42 121.49-121.49z" fill="#ffffff" p-id="2149"></path><path d="M771.63 792.22c0-157.31-127.02-284.78-283.7-284.78S204.22 634.91 204.22 792.22" fill="#ffffff" p-id="2150"></path><path d="M807.36 819.02c0-157.31-127.02-284.78-283.7-284.78S239.95 661.71 239.95 819.02" fill="#ffffff" p-id="2151"></path><path d="M240.05 831.52c6.89-0.02 12.48-5.61 12.5-12.5-0.41-149.73 120.64-271.44 270.37-271.85s271.44 120.64 271.85 270.37v1.48c0 6.91 5.6 12.5 12.5 12.5 6.91 0 12.5-5.6 12.5-12.5 0.3-163.89-132.32-296.99-296.21-297.29-79.14 0-153.46 30.91-209.47 87.09a295.947 295.947 0 0 0-86.74 210.19c0.15 6.92 5.78 12.47 12.7 12.51z" fill="#ffffff" p-id="2152"></path><path d="M600.84 317.89c0 7.21-5.84 13.05-13.05 13.05-7.21 0-13.05-5.84-13.05-13.05 0-7.21 5.84-13.05 13.05-13.05 2.29 0 4.54 0.6 6.52 1.75 4.04 2.33 6.53 6.64 6.53 11.3zM485.88 317.89c0 7.2-5.84 13.04-13.04 13.04-7.2 0-13.04-5.84-13.04-13.04 0-7.2 5.84-13.04 13.04-13.04 7.2 0 13.03 5.84 13.04 13.04zM504.1 378.72c0 12.59 11.17 22.78 25.01 22.78s25.01-10.18 25.01-22.78" fill="#ffffff" p-id="2153"></path><path d="M691.24 363.62v-64.31c0-6.91-5.6-12.51-12.51-12.51s-12.51 5.6-12.51 12.51v64.31c0 6.91 5.6 12.51 12.51 12.51s12.51-5.6 12.51-12.51zM485.88 457.25c6.91 0 12.51-5.6 12.51-12.51s-5.6-12.51-12.51-12.51c-15.27 0-35.2-8.75-51.99-22.78-15.81-13.31-26.08-28.94-26.08-40.02 0-6.91-5.6-12.5-12.5-12.5-6.91 0-12.5 5.6-12.5 12.5 0 18.67 13.13 40.82 35.02 59.22 21.42 17.88 46.88 28.6 68.05 28.6z" fill="#ffffff" p-id="2154"></path><path d="M637.46 358.53c0.96-8.81 1.01-17.7 0.18-26.53 19.02 54.54-9.77 114.16-64.31 133.18a104.462 104.462 0 0 1-46.1 5.18c-3.33-0.35-6.64-0.88-9.91-1.61 61.97-1.54 113.27-48.61 120.14-110.22z m66.64 449.14c0-104.52-54.76-196.26-137.2-248.15 123.36 24.02 216.53 132.65 216.53 263.07" fill="#ffffff" p-id="2155"></path></svg>